HIERARCHY
ROOT Hips
{
	OFFSET 0.00000 0.00000 0.00000
	CHANNELS 6 Xposition Yposition Zposition Zrotation Yrotation Xrotation 
	JOINT LHipJoint
	{
		OFFSET 0 0 0
		CHANNELS 3 Zrotation Yrotation Xrotation
		JOINT LeftHip
		{
			OFFSET 1.62964 -1.40469 0.78906
			CHANNELS 3 Zrotation Yrotation Xrotation
			JOINT LeftKnee
			{
				OFFSET 2.29640 -6.30932 0.00000
				CHANNELS 3 Zrotation Yrotation Xrotation
				JOINT LeftAnkle
				{
					OFFSET 2.29451 -6.30412 0.00000
					CHANNELS 3 Zrotation Yrotation Xrotation
					JOINT LeftToe
					{
						OFFSET 0.03611 -0.09921 1.56387
						CHANNELS 3 Zrotation Yrotation Xrotation
						End Site
						{
							OFFSET 0.00000 -0.00000 0.80291
						}
					}
				}
			}
		}
	}
	JOINT RHipJoint
	{
		OFFSET 0 0 0
		CHANNELS 3 Zrotation Yrotation Xrotation
		JOINT RightHip
		{
			OFFSET -1.73712 -1.40469 0.78906
			CHANNELS 3 Zrotation Yrotation Xrotation
			JOINT RightKnee
			{
				OFFSET -2.28137 -6.26801 0.00000
				CHANNELS 3 Zrotation Yrotation Xrotation
				JOINT RightAnkle
				{
					OFFSET -2.28681 -6.28298 0.00000
					CHANNELS 3 Zrotation Yrotation Xrotation
					JOINT RightToe
					{
						OFFSET -0.15927 -0.43759 1.61103
						CHANNELS 3 Zrotation Yrotation Xrotation
						End Site
						{
							OFFSET -0.00000 -0.00000 0.84630
						}
					}
				}
			}
		}
	}
	JOINT lowerback
	{
		OFFSET 0 0 0
		CHANNELS 3 Zrotation Yrotation Xrotation
		JOINT Chest
		{
			OFFSET -0.04227 2.04338 -0.00225
			CHANNELS 3 Zrotation Yrotation Xrotation
			JOINT Chest2
			{
				OFFSET -0.02148 2.04482 -0.04273
				CHANNELS 3 Zrotation Yrotation Xrotation
				JOINT lowerneck
				{
					OFFSET 0 0 0
					CHANNELS 3 Zrotation Yrotation Xrotation
					JOINT Neck
					{
						OFFSET 0.09180 1.44629 0.19359
						CHANNELS 3 Zrotation Yrotation Xrotation
						JOINT Head
						{
							OFFSET 0.00887 1.40645 0.14750
							CHANNELS 3 Zrotation Yrotation Xrotation
							End Site
							{
								OFFSET -0.00669 1.50671 0.03707
							}
						}
					}
				}
				JOINT LeftCollar
				{
					OFFSET 0 0 0
					CHANNELS 3 Zrotation Yrotation Xrotation
					JOINT LeftShoulder
					{
						OFFSET 2.17674 1.86763 -0.06520
CHANNELS 3 Zrotation Xrotation Yrotation
						JOINT LeftElbow
						{
OFFSET 0 -4.657760 0.000000
CHANNELS 3 Zrotation Xrotation Yrotation
							JOINT LeftWrist
							{
OFFSET 0 -3.555390 0.000000
CHANNELS 3 Zrotation Xrotation Yrotation
								JOINT lhand
								{
									OFFSET 0 0 0
CHANNELS 3 Zrotation Xrotation Yrotation
									JOINT LFingers
									{
OFFSET 0 -0.707260 0.000000
CHANNELS 3 Zrotation Xrotation Yrotation
										End Site
										{
OFFSET 0 -0.570220 0.000000
										}
									}
								}
								JOINT LThumb
								{
OFFSET 0 0.000000 0.000000
CHANNELS 3 Zrotation Xrotation Yrotation
									End Site
									{
OFFSET 0 -0.578920 0.578920
									}
								}
							}
						}
					}
				}
				JOINT RightCollar
				{
					OFFSET 0 0 0
					CHANNELS 3 Zrotation Yrotation Xrotation
					JOINT RightShoulder
					{
						OFFSET -2.80694 1.55459 -0.32496
CHANNELS 3 Zrotation Xrotation Yrotation
						JOINT RightElbow
						{
OFFSET 0 -4.719250 -0.000000
CHANNELS 3 Zrotation Xrotation Yrotation
							JOINT RightWrist
							{
OFFSET 0 -3.569900 0.000000
CHANNELS 3 Zrotation Xrotation Yrotation
								JOINT rhand
								{
									OFFSET 0 0 0
CHANNELS 3 Zrotation Xrotation Yrotation
									JOINT RFingers
									{
OFFSET 0 -0.507760 0.000000
CHANNELS 3 Zrotation Xrotation Yrotation
										End Site
										{
OFFSET 0 -0.409370 0.000000
										}
									}
								}
								JOINT RThumb
								{
OFFSET 0 0.000000 0.000000
CHANNELS 3 Zrotation Xrotation Yrotation
									End Site
									{
OFFSET 0 -0.415620 0.415620
									}
								}
							}
						}
					}
				}
			}
		}
	}
}
MOTION
Frames: 11
Frame Time: 0.008333333333333333
9.693830 24.869222 7.568019 186.599164 -199.613556 -145.454957 0.000000 0.000000 0.000000 3.672324 -31.510581 -47.257079 2.084996 9.040703 25.922859 2.220051 12.445804 26.919445 6.294360 -14.707697 -46.152109 0.000000 0.000000 0.000000 25.451560 12.120990 -37.641955 -2.147623 -9.167094 26.319307 -1.762982 -12.851580 24.133965 -2.198677 9.265720 -26.632038 -6.272265 -0.837770 -24.084935 -0.631063 0.704798 -2.155203 3.129377 0.073017 11.016324 -4.331278 -0.385156 -0.939051 7.116685 -0.895197 9.058504 3.116207 -0.338982 3.179684 0.000000 0.000000 0.000000 9.590184 -8.863749 -77.789646 88.113746 -59.986396 58.366497 31.905750 -23.982179 28.001588 0.000000 0.000000 0.000000 -7.125000 0.000000 0.000000 0.855620 -2.079262 0.886210 0.000000 0.000000 0.000000 -2.505062 12.980016 51.694352 -93.226521 -59.960398 -62.793927 -0.543024 -14.568916 34.223384 0.000000 0.000000 0.000000 7.125000 0.000000 0.000000 37.172610 60.160963 -14.963913
9.677831 24.950984 7.594972 187.109117 -203.647240 -144.930028 0.000000 0.000000 0.000000 3.843952 -31.217983 -48.111011 2.162337 9.195706 26.409973 2.186859 12.135938 26.693060 6.282623 -14.696771 -46.105804 0.000000 0.000000 0.000000 25.143549 12.017664 -37.758378 -2.108239 -9.087899 26.070740 -1.933546 -12.416162 25.161436 -2.222986 9.315413 -26.787476 -5.895326 -0.991641 -24.011393 -0.510453 0.391574 -2.049563 2.946071 -0.062182 11.129361 -4.346404 -0.364040 -0.966035 7.105953 -0.859914 9.062128 3.116742 -0.319925 3.183770 0.000000 0.000000 0.000000 9.876651 -9.237297 -77.848816 88.665139 -59.992839 58.843987 31.949387 -23.634739 27.991534 0.000000 0.000000 0.000000 -7.125000 0.000000 0.000000 0.882822 -2.080341 0.914433 0.000000 0.000000 0.000000 -2.702933 13.468648 51.451097 -93.579194 -59.951413 -63.099212 -2.183977 -13.839858 33.352415 0.000000 0.000000 0.000000 7.125000 0.000000 0.000000 34.685983 59.840500 -13.550107
9.660632 25.021146 7.628695 187.561863 -207.636678 -144.430371 0.000000 0.000000 0.000000 4.093699 -30.888697 -48.934699 2.256552 9.380027 26.992427 2.136195 11.899249 26.364427 6.285348 -14.699274 -46.116513 0.000000 0.000000 0.000000 24.974715 12.063044 -37.797074 -2.071033 -9.012413 25.834240 -2.053569 -12.027789 25.870510 -2.337613 9.534333 -27.483369 -5.528653 -1.141434 -23.969971 -0.325238 0.079949 -1.929930 2.841385 -0.199788 11.272994 -4.402073 -0.327659 -0.976368 7.092198 -0.802634 9.060702 3.124313 -0.291808 3.181902 0.000000 0.000000 0.000000 10.157883 -9.591859 -77.893766 89.332391 -59.997481 59.421841 31.958536 -23.231490 27.948011 0.000000 0.000000 0.000000 -7.125000 0.000000 0.000000 0.896416 -2.035534 0.927837 0.000000 0.000000 0.000000 -2.880625 13.913820 51.117155 -93.858532 -59.943596 -63.340966 -1.872559 -13.921491 33.792526 0.000000 0.000000 0.000000 7.125000 0.000000 0.000000 35.451039 60.120757 -14.152341
9.642865 25.082153 7.670396 188.038676 -211.487828 -143.991125 0.000000 0.000000 0.000000 4.306000 -30.573983 -49.561375 2.354668 9.568095 27.589585 2.045253 11.869342 25.801515 6.266597 -14.681686 -46.042382 0.000000 0.000000 0.000000 24.820300 12.250952 -37.702285 -2.044492 -8.958173 25.664521 -2.107539 -11.803954 26.182551 -2.431154 9.711636 -28.047958 -5.287294 -1.291923 -23.885561 -0.100057 -0.207674 -1.800044 2.861125 -0.333464 11.401858 -4.485115 -0.284603 -0.935036 7.079170 -0.736525 9.050876 3.136919 -0.261123 3.167117 0.000000 0.000000 0.000000 10.454817 -9.841553 -77.943575 90.091969 -59.999241 60.079654 32.110920 -23.042101 27.936788 0.000000 0.000000 0.000000 -7.125000 0.000000 0.000000 0.986737 -2.065814 1.022089 0.000000 0.000000 0.000000 -3.062486 14.337645 50.742744 -94.064761 -59.937492 -63.519439 -0.290707 -14.581542 34.614188 0.000000 0.000000 0.000000 7.125000 0.000000 0.000000 37.832384 60.412893 -15.500266
9.625296 25.136065 7.718875 188.660481 -215.095397 -143.599765 0.000000 0.000000 0.000000 4.343183 -30.332821 -49.859816 2.441415 9.730436 28.108135 1.899910 12.151277 24.920142 6.178444 -14.598832 -45.693350 0.000000 0.000000 0.000000 24.508714 12.562319 -37.458894 -2.036842 -8.942391 25.615224 -2.096628 -11.808254 26.115974 -2.419097 9.689219 -27.976064 -5.298613 -1.451830 -23.666252 0.117274 -0.449566 -1.685958 3.032063 -0.455578 11.436389 -4.560420 -0.248349 -0.808643 7.066864 -0.682028 9.034745 3.146969 -0.237253 3.134800 0.000000 0.000000 0.000000 10.806322 -9.919177 -78.021586 90.882018 -59.996957 60.763853 32.582566 -23.353241 28.011016 0.000000 0.000000 0.000000 -7.125000 0.000000 0.000000 1.245457 -2.278366 1.294336 0.000000 0.000000 0.000000 -3.282092 14.786446 50.452463 -94.167633 -59.934250 -63.608497 0.913420 -15.232261 34.348254 0.000000 0.000000 0.000000 7.125000 0.000000 0.000000 38.703494 59.915355 -15.464406
9.610450 25.179890 7.767280 189.613588 -218.382708 -143.049379 0.000000 0.000000 0.000000 4.141901 -30.238537 -49.964997 2.524407 9.881733 28.594954 1.704946 12.690449 23.732351 5.944076 -14.373150 -44.755484 0.000000 0.000000 0.000000 23.913240 12.896657 -37.290304 -2.068507 -9.007301 25.818085 -2.082256 -11.473522 26.000290 -2.395408 9.645157 -27.835112 -5.569305 -1.644425 -23.260530 0.233669 -0.667825 -1.643949 3.247321 -0.570551 11.288408 -4.575503 -0.223949 -0.630419 7.047123 -0.646968 9.032455 3.142073 -0.221776 3.097844 0.000000 0.000000 0.000000 11.227916 -9.938049 -78.028772 91.562222 -59.990403 61.352932 33.236869 -24.119517 28.011253 0.000000 0.000000 0.000000 -7.125000 0.000000 0.000000 1.623226 -2.465592 1.692477 0.000000 0.000000 0.000000 -3.616035 15.320722 50.788933 -94.237596 -59.932039 -63.669064 -2.398765 -14.604964 33.429655 0.000000 0.000000 0.000000 7.125000 0.000000 0.000000 34.545437 59.954601 -13.578407
9.599085 25.214605 7.812712 190.758409 -221.523860 -142.373715 0.000000 0.000000 0.000000 3.842294 -30.216320 -50.062206 2.641313 10.089088 29.266970 1.519219 13.015889 22.543612 5.678768 -14.107607 -43.674622 0.000000 0.000000 0.000000 23.268603 13.191829 -37.212446 -2.120862 -9.113020 26.149705 -2.089524 -10.641154 25.998053 -2.441508 9.730422 -28.108275 -5.823230 -1.793236 -22.737818 0.265152 -0.834201 -1.617441 3.376466 -0.655280 11.053682 -4.539904 -0.227578 -0.428405 7.035291 -0.652148 9.030228 3.129142 -0.224394 3.058737 0.000000 0.000000 0.000000 11.696458 -9.906811 -77.945415 92.499184 -59.974990 62.164158 33.502113 -24.685536 27.896081 0.000000 0.000000 0.000000 -7.125000 0.000000 0.000000 1.799409 -2.415674 1.874480 0.000000 0.000000 0.000000 -3.881834 15.791664 51.184562 -94.212208 -59.932865 -63.647060 -1.724236 -16.167894 35.834550 0.000000 0.000000 0.000000 7.125000 0.000000 0.000000 37.938591 61.684857 -16.832130
9.586597 25.241949 7.859180 191.976122 -224.577232 -141.642058 0.000000 0.000000 0.000000 3.557497 -30.177469 -50.110259 2.764561 10.302577 29.963378 1.364885 13.205787 21.518939 5.399662 -13.817690 -42.517071 0.000000 0.000000 0.000000 22.659965 13.593270 -37.089048 -2.179489 -9.229960 26.517568 -2.076267 -9.804007 25.879799 -2.488571 9.817016 -28.386201 -6.066238 -1.902805 -22.159480 0.283220 -0.957171 -1.581853 3.499628 -0.718401 10.794569 -4.494312 -0.254210 -0.230669 7.036022 -0.688724 9.021640 3.117892 -0.241723 3.020533 0.000000 0.000000 0.000000 12.266735 -9.775543 -77.822370 93.712492 -59.944963 63.214425 33.561298 -25.188457 27.751779 0.000000 0.000000 0.000000 -7.125000 0.000000 0.000000 1.862408 -2.274502 1.935847 0.000000 0.000000 0.000000 -4.073078 16.125507 51.291222 -94.011624 -59.938964 -63.473430 0.618042 -17.788025 37.208691 0.000000 0.000000 0.000000 7.125000 0.000000 0.000000 41.724154 62.186725 -19.180461
9.572066 25.262813 7.909014 193.203786 -227.547845 -140.887885 0.000000 0.000000 0.000000 3.330593 -30.053635 -50.090148 2.879796 10.497370 30.603295 1.250570 13.241972 20.717493 5.222682 -13.630005 -41.775574 0.000000 0.000000 0.000000 22.151221 14.120754 -36.895859 -2.243369 -9.355296 26.913368 -2.026863 -9.061822 25.551108 -2.601097 10.013454 -29.025786 -6.289843 -1.980950 -21.554336 0.315272 -1.050323 -1.536766 3.638003 -0.767113 10.528442 -4.440338 -0.289964 -0.054018 7.040968 -0.736966 9.006381 3.106381 -0.264123 2.984850 0.000000 0.000000 0.000000 13.014049 -9.484503 -77.639179 95.250975 -59.891757 64.545663 33.486835 -25.671535 27.608033 0.000000 0.000000 0.000000 -7.125000 0.000000 0.000000 1.847967 -2.095178 1.915329 0.000000 0.000000 0.000000 -4.220294 16.324769 51.185408 -93.691940 -59.948378 -63.196723 3.375889 -18.855369 36.899691 0.000000 0.000000 0.000000 7.125000 0.000000 0.000000 43.958360 61.256258 -19.465682
9.556681 25.278120 7.963815 194.398823 -230.414848 -140.131033 0.000000 0.000000 0.000000 3.168677 -29.780014 -49.996252 2.978155 10.659708 31.140562 1.176343 13.054949 20.134943 5.338673 -13.755394 -42.266167 0.000000 0.000000 0.000000 21.800384 14.716812 -36.673860 -2.318859 -9.500899 27.375055 -1.940254 -8.298149 24.990157 -2.930586 10.581727 -30.881909 -6.476245 -2.040771 -20.939144 0.367295 -1.134727 -1.496452 3.781147 -0.810043 10.249947 -4.357408 -0.312453 0.089103 7.032218 -0.766127 8.988077 3.085435 -0.276058 2.952664 0.000000 0.000000 0.000000 14.030533 -8.965619 -77.332505 97.171378 -59.804753 66.206450 33.307889 -26.131972 27.467313 0.000000 0.000000 0.000000 -7.125000 0.000000 0.000000 1.772217 -1.889126 1.830509 0.000000 0.000000 0.000000 -4.384374 16.444758 51.221572 -93.407013 -59.956110 -62.950065 5.648944 -19.565451 36.401494 0.000000 0.000000 0.000000 7.125000 0.000000 0.000000 45.467424 60.330532 -19.295389
9.547837 25.287438 8.018064 195.734120 -233.180990 -139.200826 0.000000 0.000000 0.000000 3.063338 -29.502689 -49.973510 3.098655 10.852461 31.784600 1.102274 12.888965 19.540179 5.562302 -13.989289 -43.196611 0.000000 0.000000 0.000000 21.414324 15.290018 -36.513246 -2.394113 -9.642483 27.826893 -1.824018 -7.942727 24.212984 -3.207595 11.020378 -32.352473 -6.497566 -2.121473 -20.297553 0.412384 -1.289578 -1.473868 3.803257 -0.877479 9.941036 -4.266361 -0.290185 0.137745 6.993209 -0.731698 8.977259 3.054797 -0.256001 2.935845 0.000000 0.000000 0.000000 15.181289 -8.406863 -76.814653 99.005734 -59.687806 67.790802 33.160936 -26.402427 27.473472 0.000000 0.000000 0.000000 -7.125000 0.000000 0.000000 1.685671 -1.853986 1.740094 0.000000 0.000000 0.000000 -4.655697 16.472159 51.965343 -93.224131 -59.960690 -62.791741 3.919770 -19.021935 36.682451 0.000000 0.000000 0.000000 7.125000 0.000000 0.000000 44.201774 60.960435 -19.290415
